<mxfile host="app.diagrams.net" modified="2024-03-06T11:23:34.858Z" agent="Mozilla/5.0 (X11; Linux x86_64; rv:109.0) Gecko/20100101 Firefox/115.0" etag="mXv0HrkOEwhJ92Jj5dzw" version="24.0.2" type="device">
  <diagram name="Page-1" id="65SgnbfUgcCyvsbOoW49">
    <mxGraphModel dx="2284" dy="778" grid="1" gridSize="10" guides="1" tooltips="1" connect="1" arrows="1" fold="1" page="1" pageScale="1" pageWidth="850" pageHeight="1100" math="0" shadow="0">
      <root>
        <mxCell id="0" />
        <mxCell id="1" parent="0" />
        <mxCell id="EOYnqmgIXpOH6wcrSk3W-2" value="Проваленный проект" style="triangle;whiteSpace=wrap;html=1;" parent="1" vertex="1">
          <mxGeometry x="570" y="440" width="190" height="120" as="geometry" />
        </mxCell>
        <mxCell id="EOYnqmgIXpOH6wcrSk3W-3" value="" style="endArrow=none;html=1;rounded=0;entryX=0;entryY=0.5;entryDx=0;entryDy=0;" parent="1" target="EOYnqmgIXpOH6wcrSk3W-2" edge="1">
          <mxGeometry width="50" height="50" relative="1" as="geometry">
            <mxPoint x="-420" y="500" as="sourcePoint" />
            <mxPoint x="430" y="480" as="targetPoint" />
          </mxGeometry>
        </mxCell>
        <mxCell id="EOYnqmgIXpOH6wcrSk3W-4" value="" style="endArrow=classic;html=1;rounded=0;" parent="1" edge="1">
          <mxGeometry width="50" height="50" relative="1" as="geometry">
            <mxPoint x="280" y="140" as="sourcePoint" />
            <mxPoint x="480" y="500" as="targetPoint" />
          </mxGeometry>
        </mxCell>
        <mxCell id="EOYnqmgIXpOH6wcrSk3W-5" value="Материаллы" style="rounded=0;whiteSpace=wrap;html=1;" parent="1" vertex="1">
          <mxGeometry x="280" y="80" width="120" height="60" as="geometry" />
        </mxCell>
        <mxCell id="EOYnqmgIXpOH6wcrSk3W-6" value="" style="endArrow=classic;html=1;rounded=0;" parent="1" edge="1">
          <mxGeometry width="50" height="50" relative="1" as="geometry">
            <mxPoint x="-130" y="140" as="sourcePoint" />
            <mxPoint x="70" y="500" as="targetPoint" />
          </mxGeometry>
        </mxCell>
        <mxCell id="EOYnqmgIXpOH6wcrSk3W-7" value="Оборудование" style="rounded=0;whiteSpace=wrap;html=1;" parent="1" vertex="1">
          <mxGeometry x="-130" y="80" width="120" height="60" as="geometry" />
        </mxCell>
        <mxCell id="EOYnqmgIXpOH6wcrSk3W-8" value="" style="endArrow=classic;html=1;rounded=0;" parent="1" edge="1">
          <mxGeometry width="50" height="50" relative="1" as="geometry">
            <mxPoint x="-550" y="140" as="sourcePoint" />
            <mxPoint x="-350" y="500" as="targetPoint" />
          </mxGeometry>
        </mxCell>
        <mxCell id="EOYnqmgIXpOH6wcrSk3W-9" value="Персонал" style="rounded=0;whiteSpace=wrap;html=1;" parent="1" vertex="1">
          <mxGeometry x="-550" y="80" width="120" height="60" as="geometry" />
        </mxCell>
        <mxCell id="EOYnqmgIXpOH6wcrSk3W-10" value="" style="endArrow=classic;html=1;rounded=0;" parent="1" edge="1">
          <mxGeometry width="50" height="50" relative="1" as="geometry">
            <mxPoint x="310" y="800" as="sourcePoint" />
            <mxPoint x="480" y="500" as="targetPoint" />
          </mxGeometry>
        </mxCell>
        <mxCell id="EOYnqmgIXpOH6wcrSk3W-12" value="&lt;div&gt;Окружающая среда&lt;/div&gt;" style="rounded=0;whiteSpace=wrap;html=1;" parent="1" vertex="1">
          <mxGeometry x="310" y="800" width="120" height="60" as="geometry" />
        </mxCell>
        <mxCell id="EOYnqmgIXpOH6wcrSk3W-13" value="" style="endArrow=classic;html=1;rounded=0;" parent="1" edge="1">
          <mxGeometry width="50" height="50" relative="1" as="geometry">
            <mxPoint x="-100" y="800" as="sourcePoint" />
            <mxPoint x="70" y="500" as="targetPoint" />
          </mxGeometry>
        </mxCell>
        <mxCell id="EOYnqmgIXpOH6wcrSk3W-14" value="Измерение" style="rounded=0;whiteSpace=wrap;html=1;" parent="1" vertex="1">
          <mxGeometry x="-100" y="800" width="120" height="60" as="geometry" />
        </mxCell>
        <mxCell id="EOYnqmgIXpOH6wcrSk3W-15" value="" style="endArrow=classic;html=1;rounded=0;" parent="1" edge="1">
          <mxGeometry width="50" height="50" relative="1" as="geometry">
            <mxPoint x="-520" y="800" as="sourcePoint" />
            <mxPoint x="-350" y="500" as="targetPoint" />
          </mxGeometry>
        </mxCell>
        <mxCell id="EOYnqmgIXpOH6wcrSk3W-16" value="Метод" style="rounded=0;whiteSpace=wrap;html=1;" parent="1" vertex="1">
          <mxGeometry x="-520" y="800" width="120" height="60" as="geometry" />
        </mxCell>
        <mxCell id="EOYnqmgIXpOH6wcrSk3W-18" value="Незаинтересованность сотрудников" style="rounded=1;whiteSpace=wrap;html=1;" parent="1" vertex="1">
          <mxGeometry x="-720" y="210" width="200" height="60" as="geometry" />
        </mxCell>
        <mxCell id="EOYnqmgIXpOH6wcrSk3W-19" value="Отсутствие четкого расписания работы над проектом (временных рамок)" style="rounded=1;whiteSpace=wrap;html=1;" parent="1" vertex="1">
          <mxGeometry x="-270" y="670" width="200" height="60" as="geometry" />
        </mxCell>
        <mxCell id="EOYnqmgIXpOH6wcrSk3W-20" value="Отсутствие настроенной среды разработки" style="rounded=1;whiteSpace=wrap;html=1;" parent="1" vertex="1">
          <mxGeometry x="-240" y="180" width="120" height="60" as="geometry" />
        </mxCell>
        <mxCell id="EOYnqmgIXpOH6wcrSk3W-21" value="Отсутствие четкого описания задач" style="rounded=1;whiteSpace=wrap;html=1;" parent="1" vertex="1">
          <mxGeometry x="170" y="180" width="120" height="60" as="geometry" />
        </mxCell>
        <mxCell id="EOYnqmgIXpOH6wcrSk3W-22" value="Отсутствие четкой цели" style="rounded=1;whiteSpace=wrap;html=1;" parent="1" vertex="1">
          <mxGeometry x="230" y="280" width="120" height="60" as="geometry" />
        </mxCell>
        <mxCell id="EOYnqmgIXpOH6wcrSk3W-23" value="Выход оборудования из строя" style="rounded=1;whiteSpace=wrap;html=1;" parent="1" vertex="1">
          <mxGeometry x="-200" y="260" width="120" height="60" as="geometry" />
        </mxCell>
        <mxCell id="EOYnqmgIXpOH6wcrSk3W-24" value="Не настроена синхронизация изменений (GIT)" style="rounded=1;whiteSpace=wrap;html=1;" parent="1" vertex="1">
          <mxGeometry x="-150" y="340" width="120" height="60" as="geometry" />
        </mxCell>
        <mxCell id="EOYnqmgIXpOH6wcrSk3W-25" value="Не налажена коммуникация внутри команды" style="rounded=1;whiteSpace=wrap;html=1;" parent="1" vertex="1">
          <mxGeometry x="-620" y="290" width="120" height="60" as="geometry" />
        </mxCell>
        <mxCell id="EOYnqmgIXpOH6wcrSk3W-26" value="Отсутствие макета сайта" style="rounded=1;whiteSpace=wrap;html=1;" parent="1" vertex="1">
          <mxGeometry x="260" y="360" width="120" height="60" as="geometry" />
        </mxCell>
        <mxCell id="EOYnqmgIXpOH6wcrSk3W-27" value="Несовместимость ОС" style="rounded=1;whiteSpace=wrap;html=1;" parent="1" vertex="1">
          <mxGeometry x="-110" y="410" width="120" height="60" as="geometry" />
        </mxCell>
        <mxCell id="EOYnqmgIXpOH6wcrSk3W-28" value="Отсутствие контроля за выполнением задач" style="rounded=1;whiteSpace=wrap;html=1;" parent="1" vertex="1">
          <mxGeometry x="-150" y="580" width="120" height="60" as="geometry" />
        </mxCell>
        <mxCell id="EOYnqmgIXpOH6wcrSk3W-29" value="Несвоевременное исправление багов" style="rounded=1;whiteSpace=wrap;html=1;" parent="1" vertex="1">
          <mxGeometry x="-590" y="600" width="120" height="60" as="geometry" />
        </mxCell>
        <mxCell id="EOYnqmgIXpOH6wcrSk3W-30" value="Нет обратной связи от заказчика" style="rounded=1;whiteSpace=wrap;html=1;" parent="1" vertex="1">
          <mxGeometry x="-570" y="390" width="120" height="60" as="geometry" />
        </mxCell>
        <mxCell id="EOYnqmgIXpOH6wcrSk3W-31" value="Отстутствие стратегического планирования" style="rounded=1;whiteSpace=wrap;html=1;" parent="1" vertex="1">
          <mxGeometry x="-640" y="700" width="120" height="60" as="geometry" />
        </mxCell>
        <mxCell id="EOYnqmgIXpOH6wcrSk3W-32" value="Высокая конкуренция" style="rounded=1;whiteSpace=wrap;html=1;" parent="1" vertex="1">
          <mxGeometry x="270" y="540" width="120" height="60" as="geometry" />
        </mxCell>
        <mxCell id="EOYnqmgIXpOH6wcrSk3W-33" value="Устаревание продукта" style="rounded=1;whiteSpace=wrap;html=1;" parent="1" vertex="1">
          <mxGeometry x="230" y="620" width="120" height="60" as="geometry" />
        </mxCell>
        <mxCell id="EOYnqmgIXpOH6wcrSk3W-34" value="Плохое продвижение" style="rounded=1;whiteSpace=wrap;html=1;" parent="1" vertex="1">
          <mxGeometry x="210" y="700" width="120" height="60" as="geometry" />
        </mxCell>
        <mxCell id="EOYnqmgIXpOH6wcrSk3W-35" value="Отсутствие обратной связи с клиентами" style="rounded=1;whiteSpace=wrap;html=1;" parent="1" vertex="1">
          <mxGeometry x="170" y="770" width="120" height="60" as="geometry" />
        </mxCell>
      </root>
    </mxGraphModel>
  </diagram>
</mxfile>
